HIERARCHY
ROOT SpineBase
{
  OFFSET 0.000000 0.000000 0.000000
  CHANNELS 6 Xposition Yposition Zposition Zrotation Xrotation Yrotation
  JOINT SpineMid
  {
    OFFSET 0.000000 32.750966 0.000000
    CHANNELS 3 Zrotation Xrotation Yrotation
    JOINT SpineShoulder
    {
      OFFSET -0.063348 24.334467 -0.886792
      CHANNELS 3 Zrotation Xrotation Yrotation
      JOINT Neck
      {
        OFFSET -0.068665 8.053195 -0.646577
        CHANNELS 3 Zrotation Xrotation Yrotation
        JOINT Head
        {
          OFFSET -3.106558 10.964334 2.086565
          CHANNELS 3 Zrotation Xrotation Yrotation
          End Site
          {
            OFFSET 0 0 0
          }
        }
      }
      JOINT ShoulderLeft
      {
        OFFSET -16.076162 -5.727083 8.710631
        CHANNELS 3 Zrotation Xrotation Yrotation
        JOINT ElbowLeft
        {
          OFFSET -1.123647 -27.100616 1.812979
          CHANNELS 3 Zrotation Xrotation Yrotation
          JOINT WristLeft
          {
            OFFSET -2.950003 -22.168409 -3.912107
            CHANNELS 3 Zrotation Xrotation Yrotation
            JOINT HandLeft
            {
              OFFSET 0.099912 -5.475611 -2.155518
              CHANNELS 3 Zrotation Xrotation Yrotation
              JOINT HandTipLeft
              {
                OFFSET -0.946471 -6.580369 -2.531041
                CHANNELS 3 Zrotation Xrotation Yrotation
                End Site
                {
                  OFFSET 0 0 0
                }
              }
              JOINT ThumbLeft
              {
                OFFSET 2.648367 -0.241102 -3.230176
                CHANNELS 3 Zrotation Xrotation Yrotation
                End Site
                {
                  OFFSET 0 0 0
                }
              }
            }
          }
        }
      }
      JOINT ShoulderRight
      {
        OFFSET 13.218528 -3.257370 -11.030223
        CHANNELS 3 Zrotation Xrotation Yrotation
        JOINT ElbowRight
        {
          OFFSET 7.482788 -25.844920 -3.047331
          CHANNELS 3 Zrotation Xrotation Yrotation
          JOINT WristRight
          {
            OFFSET -1.270095 -23.211277 -7.475516
            CHANNELS 3 Zrotation Xrotation Yrotation
            JOINT HandRight
            {
              OFFSET -1.380850 -6.924634 -1.738813
              CHANNELS 3 Zrotation Xrotation Yrotation
              JOINT HandTipRight
              {
                OFFSET -1.090699 -6.172102 -1.186086
                CHANNELS 3 Zrotation Xrotation Yrotation
                End Site
                {
                  OFFSET 0 0 0
                }
              }
              JOINT ThumbRight
              {
                OFFSET 2.547853 -1.526359 -2.720834
                CHANNELS 3 Zrotation Xrotation Yrotation
                End Site
                {
                  OFFSET 0 0 0
                }
              }
            }
          }
        }
      }
    }
  }
  JOINT HipLeft
  {
    OFFSET -6.848196 0.435639 -0.361865
    CHANNELS 3 Zrotation Xrotation Yrotation
    JOINT KneeLeft
    {
      OFFSET 0.087228 -35.046566 -0.103496
      CHANNELS 3 Zrotation Xrotation Yrotation
      JOINT AnkleLeft
      {
        OFFSET 1.563368 -34.580377 3.653616
        CHANNELS 3 Zrotation Xrotation Yrotation
        JOINT FootLeft
        {
          OFFSET -5.752627 -4.528938 -10.848334
          CHANNELS 3 Zrotation Xrotation Yrotation
          End Site
          {
            OFFSET 0 0 0
          }
        }
      }
    }
  }
  JOINT HipRight
  {
    OFFSET 5.454746 1.634892 -7.469031
    CHANNELS 3 Zrotation Xrotation Yrotation
    JOINT KneeRight
    {
      OFFSET 6.571652 -33.281452 -4.098339
      CHANNELS 3 Zrotation Xrotation Yrotation
      JOINT AnkleRight
      {
        OFFSET 3.529744 -36.796896 4.790741
        CHANNELS 3 Zrotation Xrotation Yrotation
        JOINT FootRight
        {
          OFFSET -4.531134 -4.666418 -11.032531
          CHANNELS 3 Zrotation Xrotation Yrotation
          End Site
          {
            OFFSET 0 0 0
          }
        }
      }
    }
  }
}
MOTION
Frames: 10
Frame Time: 0.033333
63.447689 77.158333 355.481182 -0.000000 0.000000 30.014176 -0.000000 0.000000 -30.014176 -0.000000 0.000000 0.000000 -0.000000 0.000000 0.000000 0.000000 0.000000 0.000000 -0.000000 0.000000 0.000000 -0.000000 0.000000 0.000000 -0.000000 0.000000 0.000000 -0.000000 0.000000 0.000000 0.000000 0.000000 0.000000 0.000000 0.000000 0.000000 -0.000000 0.000000 0.000000 -0.000000 0.000000 0.000000 -0.000000 0.000000 0.000000 -0.000000 0.000000 0.000000 0.000000 0.000000 0.000000 0.000000 0.000000 0.000000 -0.000000 0.000000 -30.014176 -0.000000 0.000000 0.000000 -0.000000 0.000000 0.000000 0.000000 0.000000 0.000000 -0.000000 0.000000 -30.014176 -0.000000 0.000000 0.000000 -0.000000 0.000000 0.000000 0.000000 0.000000 0.000000
63.464177 77.162042 355.434454 -0.060174 0.001117 30.003850 0.051552 -0.031058 -30.003835 -0.000000 0.000000 0.000000 -0.000000 0.000000 0.000000 0.000000 0.000000 0.000000 -0.000000 0.000000 0.000000 -0.000000 0.000000 0.000000 -0.000000 0.000000 0.000000 -0.000000 0.000000 0.000000 0.000000 0.000000 0.000000 0.000000 0.000000 0.000000 -0.000000 0.000000 0.000000 -0.000000 0.000000 0.000000 1.631406 0.051875 -0.421913 -0.518547 2.486271 -0.268155 0.000000 0.000000 0.000000 0.000000 0.000000 0.000000 0.051552 -0.031058 -30.003835 -0.000000 0.000000 0.000000 2.354883 -4.356460 -0.017826 0.000000 0.000000 0.000000 0.051552 -0.031058 -30.003835 -0.000000 0.000000 0.000000 1.924029 -3.876854 -0.794820 0.000000 0.000000 0.000000
63.483979 77.165398 355.387228 -0.105670 0.008408 29.996772 0.087312 -0.060112 -29.996719 -0.000000 0.000000 0.000000 -0.000000 0.000000 0.000000 0.000000 0.000000 0.000000 -0.000000 0.000000 0.000000 -0.000000 0.000000 0.000000 -0.600011 -1.125486 0.210605 1.739847 0.715021 -0.621023 0.000000 0.000000 0.000000 0.000000 0.000000 0.000000 -0.000000 0.000000 0.000000 -0.000000 0.000000 0.000000 3.004586 0.129484 -0.787741 -0.948643 4.454543 -0.510769 0.000000 0.000000 0.000000 0.000000 0.000000 0.000000 0.087312 -0.060112 -29.996719 -0.000000 0.000000 0.000000 4.587846 -8.447380 0.120394 0.000000 0.000000 0.000000 0.087312 -0.060112 -29.996719 -0.000000 0.000000 0.000000 3.475391 -7.104101 -1.330852 0.000000 0.000000 0.000000
63.507095 77.168403 355.339503 -0.136479 0.021874 29.992947 0.107268 -0.087170 -29.992839 -0.000000 0.000000 0.000000 -0.000000 0.000000 0.000000 0.000000 0.000000 0.000000 -0.000000 0.000000 0.000000 -0.000000 0.000000 0.000000 -0.790384 -1.447446 0.276156 2.336599 0.901840 -0.845909 0.000000 0.000000 0.000000 0.000000 0.000000 0.000000 -0.000000 0.000000 0.000000 -0.000000 0.000000 0.000000 4.080616 0.237955 -1.088156 -1.257928 5.886191 -0.709464 0.000000 0.000000 0.000000 0.000000 0.000000 0.000000 0.107268 -0.087170 -29.992839 -0.000000 0.000000 0.000000 6.595133 -12.052391 0.367282 0.000000 0.000000 0.000000 0.107268 -0.087170 -29.992839 -0.000000 0.000000 0.000000 4.585633 -9.470064 -1.634279 0.000000 0.000000 0.000000
63.533523 77.171055 355.291279 -0.152597 0.041516 29.992370 0.111410 -0.112237 -29.992206 -0.000000 0.000000 0.000000 -0.000000 0.000000 0.000000 0.000000 0.000000 0.000000 -0.000000 0.000000 0.000000 -0.000000 0.000000 0.000000 -0.918413 -1.629105 0.320603 2.755559 1.000782 -1.007842 0.000000 0.000000 0.000000 0.000000 0.000000 0.000000 -0.000000 0.000000 0.000000 -0.000000 0.000000 0.000000 4.830982 0.380797 -1.315716 -1.421631 6.775193 -0.850244 0.000000 0.000000 0.000000 0.000000 0.000000 0.000000 0.111410 -0.112237 -29.992206 -0.000000 0.000000 0.000000 8.271286 -14.986108 0.653057 0.000000 0.000000 0.000000 0.111410 -0.112237 -29.992206 -0.000000 0.000000 0.000000 5.205505 -10.832510 -1.737923 0.000000 0.000000 0.000000
63.563265 77.173355 355.242555 -0.154021 0.067332 29.995033 0.099733 -0.135313 -29.994824 -0.000000 0.000000 0.000000 -0.000000 0.000000 0.000000 0.000000 0.000000 0.000000 -0.000000 0.000000 0.000000 -0.000000 0.000000 0.000000 -0.989032 -1.679477 0.346257 2.997988 1.023920 -1.104413 0.000000 0.000000 0.000000 0.000000 0.000000 0.000000 -0.000000 0.000000 0.000000 -0.000000 0.000000 0.000000 5.238858 0.559332 -1.465040 -1.424782 7.123329 -0.923090 0.000000 0.000000 0.000000 0.000000 0.000000 0.000000 0.099733 -0.135313 -29.994824 -0.000000 0.000000 0.000000 9.520519 -17.114584 0.899856 0.000000 0.000000 0.000000 0.099733 -0.135313 -29.994824 -0.000000 0.000000 0.000000 5.306669 -11.118131 -1.667085 0.000000 0.000000 0.000000
63.602999 77.174021 355.186954 -0.123778 0.113331 30.009702 0.050503 -0.160045 -30.009509 -0.000000 0.000000 0.000000 -0.000000 0.000000 0.000000 0.000000 0.000000 0.000000 -0.000000 0.000000 0.000000 -0.000000 0.000000 0.000000 -1.185832 -1.617737 0.422995 3.287902 1.937266 -1.374648 0.000000 0.000000 0.000000 0.000000 0.000000 0.000000 -0.000000 0.000000 0.000000 -0.000000 0.000000 0.000000 5.068594 0.874488 -1.496933 -1.139948 7.166780 -0.997510 0.000000 0.000000 0.000000 0.000000 0.000000 0.000000 0.050503 -0.160045 -30.009509 -0.000000 0.000000 0.000000 12.119195 -21.331353 1.364541 0.000000 0.000000 0.000000 0.050503 -0.160045 -30.009509 -0.000000 0.000000 0.000000 5.524989 -10.993259 -2.525686 0.000000 0.000000 0.000000
63.645511 77.176023 355.130826 -0.087044 0.158056 30.014409 -0.003691 -0.180402 -30.014295 -0.000000 0.000000 0.000000 -0.000000 0.000000 0.000000 0.000000 0.000000 0.000000 -0.000000 0.000000 0.000000 -0.000000 0.000000 0.000000 -1.162531 -1.132469 0.427240 3.552820 2.816870 -1.685508 0.000000 0.000000 0.000000 0.000000 0.000000 0.000000 -0.000000 0.000000 0.000000 -0.000000 0.000000 0.000000 4.829743 1.079929 -1.483275 -1.406625 6.890213 -0.871450 0.000000 0.000000 0.000000 0.000000 0.000000 0.000000 -0.003691 -0.180402 -30.014295 -0.000000 0.000000 0.000000 12.708163 -22.429942 2.148391 0.000000 0.000000 0.000000 -0.003691 -0.180402 -30.014295 -0.000000 0.000000 0.000000 4.577824 -9.184083 -1.975678 0.000000 0.000000 0.000000
63.681518 77.177352 355.085794 -0.052879 0.193447 30.004133 -0.050943 -0.193966 -30.004130 -0.000000 0.000000 0.000000 -0.000000 0.000000 0.000000 0.000000 0.000000 0.000000 -0.000000 0.000000 0.000000 -0.391787 -0.752146 0.166777 -0.505880 -0.122767 0.171319 3.199768 2.116767 -1.465264 0.000000 0.000000 0.000000 0.000000 0.000000 0.000000 -0.000000 0.000000 0.000000 -0.000000 0.000000 0.000000 4.159208 1.925980 -1.503353 -0.287655 4.934377 -0.708355 0.000000 0.000000 0.000000 0.000000 0.000000 0.000000 -0.050943 -0.193966 -30.004130 -0.000000 0.000000 0.000000 10.341325 -18.604994 1.424549 0.000000 0.000000 0.000000 -0.050943 -0.193966 -30.004130 -0.000000 0.000000 0.000000 5.875930 -11.271934 -3.268040 0.000000 0.000000 0.000000
63.707433 77.179216 355.054563 -0.016205 0.221890 30.011308 -0.096951 -0.200246 -30.011446 -0.000000 0.000000 0.000000 -0.000000 0.000000 0.000000 0.000000 0.000000 0.000000 -0.000000 0.000000 0.000000 -0.407277 -0.792685 0.174673 -0.195711 0.213388 0.052509 1.606475 0.726201 -0.648825 0.000000 0.000000 0.000000 0.000000 0.000000 0.000000 -0.000000 0.000000 0.000000 -0.000000 0.000000 0.000000 3.117802 2.500038 -1.349620 -0.015989 3.056590 -0.384958 0.000000 0.000000 0.000000 0.000000 0.000000 0.000000 -0.096951 -0.200246 -30.011446 -0.000000 0.000000 0.000000 9.697492 -17.575778 1.378851 0.000000 0.000000 0.000000 -0.096951 -0.200246 -30.011446 -0.000000 0.000000 0.000000 5.265109 -9.815996 -3.255000 0.000000 0.000000 0.000000
